<svg xmlns="http://www.w3.org/2000/svg" width="107.451" height="13.434" viewBox="0 0 107.451 13.434">
  <g id="Group_11125" data-name="Group 11125" transform="translate(-2133.301 -1833.438)">
    <path id="Path_801" data-name="Path 801" d="M3251.88-75.748h-7.36a3.742,3.742,0,0,1,.175-2.072c.618-1.1,1.325-1.532,3.429-2.816.8-.458,1.848-1.141,1.469-2.262a1.82,1.82,0,0,0-3.139-.261c-.141.172-.255.365-.4.576l-1.807-1.1a3.3,3.3,0,0,1,.64-1.009,3.919,3.919,0,0,1,6.08.165,3.716,3.716,0,0,1,.492,2.768c0,.016,0,.029-.008.045-.026.113-.084.312-.116.429a3.607,3.607,0,0,1-1.411,1.809c-.243.173-.343.236-.466.309-.293.174-.773.489-1.261.788a4.207,4.207,0,0,0-.741.581l4.424-.029Z" transform="translate(-1090.984 1922.602)" fill="#fff"/>
    <path id="Path_802" data-name="Path 802" d="M3212.872-84.483l-1.469,1.472a3.061,3.061,0,0,0-4.428.206,3.058,3.058,0,0,0,.074,4.008,3.054,3.054,0,0,0,4.34.134l1.474,1.5a5.125,5.125,0,0,1-7.056.123,5.139,5.139,0,0,1-.032-7.567A5.1,5.1,0,0,1,3212.872-84.483Z" transform="translate(-1070.829 1922.568)" fill="#fff"/>
    <path id="Path_803" data-name="Path 803" d="M3231.936-80.767c0-.07,0-.139,0-.209,0-.128-.009-.254-.021-.38a6.136,6.136,0,0,0-.515-1.809c-.008-.016-.016-.031-.024-.047-.022-.046-.047-.091-.07-.135a5.188,5.188,0,0,0-1.39-1.62,5.849,5.849,0,0,0-1.569-.813,6.222,6.222,0,0,0-.8-.2,5.174,5.174,0,0,0-.771-.058,5.266,5.266,0,0,0-.623.039c-.075.016-.152.031-.228.044a5.147,5.147,0,0,0-4.175,6.113,5.156,5.156,0,0,0,6.933,3.737c.341-.136.663-.322,1.006-.5l.086-.045v.922h2.167C3231.938-77.416,3231.94-79.092,3231.936-80.767Zm-3.689,2.571a3.038,3.038,0,0,1-1.475.381,3.051,3.051,0,0,1-3.051-3.051,3.052,3.052,0,0,1,3.051-3.051,3.034,3.034,0,0,1,1.883.653l.031.023c.028.023.055.047.083.071.053.045.1.091.153.139l.017.017a3.015,3.015,0,0,1,.9,2.149A3.035,3.035,0,0,1,3228.247-78.2Z" transform="translate(-1079.626 1922.593)" fill="#fff"/>
    <rect id="Rectangle_477" data-name="Rectangle 477" width="3.866" height="2.165" transform="translate(2162.868 1840.521)" fill="#fff"/>
    <g id="Group_478" data-name="Group 478" transform="translate(2169.167 1833.437)">
      <g id="Group_477" data-name="Group 477" transform="translate(0 0)">
        <path id="Path_804" data-name="Path 804" d="M3389.508-84.974l-1.448,1.526a3.013,3.013,0,0,0-4.425.27,3.183,3.183,0,0,0,.129,4.1,3.005,3.005,0,0,0,4.342.078l1.494,1.51a5.042,5.042,0,0,1-7.053.221,5.34,5.34,0,0,1-.137-7.741A5.017,5.017,0,0,1,3389.508-84.974Z" transform="translate(-3328.766 89.371)" fill="#fff"/>
        <path id="Path_805" data-name="Path 805" d="M3354.842-86.437a5.249,5.249,0,0,0-5.25,5.25,5.249,5.249,0,0,0,5.25,5.249,5.249,5.249,0,0,0,5.249-5.249A5.249,5.249,0,0,0,3354.842-86.437Zm0,8.325a3.075,3.075,0,0,1-3.076-3.075,3.075,3.075,0,0,1,3.076-3.076,3.075,3.075,0,0,1,3.075,3.076A3.075,3.075,0,0,1,3354.842-78.112Z" transform="translate(-3313.078 89.359)" fill="#fff"/>
        <g id="Group_472" data-name="Group 472" transform="translate(0 2.922)">
          <rect id="Rectangle_478" data-name="Rectangle 478" width="9.325" height="2.103" transform="translate(0.845 4.021)" fill="#fff"/>
          <path id="Path_806" data-name="Path 806" d="M3281.46-78.112a3.075,3.075,0,0,1-3.075-3.075,3.075,3.075,0,0,1,3.075-3.076,3.075,3.075,0,0,1,3.075,3.076,3.075,3.075,0,0,1-.128.874h2.223a5.26,5.26,0,0,0,.079-.874,5.249,5.249,0,0,0-5.249-5.25,5.249,5.249,0,0,0-5.249,5.25,5.249,5.249,0,0,0,5.249,5.249,5.235,5.235,0,0,0,4.134-2.021l-1.761-1.272A3.067,3.067,0,0,1,3281.46-78.112Z" transform="translate(-3276.211 86.437)" fill="#fff"/>
        </g>
        <g id="Group_473" data-name="Group 473" transform="translate(61.086 2.922)">
          <rect id="Rectangle_479" data-name="Rectangle 479" width="9.766" height="2.103" transform="translate(0.404 4.021)" fill="#fff"/>
          <path id="Path_807" data-name="Path 807" d="M3404.224-78.112a3.075,3.075,0,0,1-3.075-3.075,3.075,3.075,0,0,1,3.075-3.076,3.075,3.075,0,0,1,3.075,3.076,3.075,3.075,0,0,1-.128.874h2.223a5.26,5.26,0,0,0,.079-.874,5.249,5.249,0,0,0-5.249-5.25,5.249,5.249,0,0,0-5.249,5.25,5.249,5.249,0,0,0,5.249,5.249,5.236,5.236,0,0,0,4.133-2.021l-1.76-1.272A3.069,3.069,0,0,1,3404.224-78.112Z" transform="translate(-3398.975 86.437)" fill="#fff"/>
        </g>
        <g id="Group_474" data-name="Group 474" transform="translate(11.766)">
          <path id="Path_808" data-name="Path 808" d="M3299.858-76.082V-86.437h.526a1.754,1.754,0,0,1,1.754,1.755v8.6Z" transform="translate(-3299.858 89.359)" fill="#fff"/>
          <circle id="Ellipse_80" data-name="Ellipse 80" cx="1.141" cy="1.141" r="1.141" fill="#fff"/>
        </g>
        <g id="Group_475" data-name="Group 475" transform="translate(48.391)">
          <path id="Path_809" data-name="Path 809" d="M3373.461-76.082V-86.437h.526a1.755,1.755,0,0,1,1.755,1.755v8.6Z" transform="translate(-3373.461 89.359)" fill="#fff"/>
          <circle id="Ellipse_81" data-name="Ellipse 81" cx="1.141" cy="1.141" r="1.141" transform="translate(0)" fill="#fff"/>
        </g>
        <g id="Group_476" data-name="Group 476" transform="translate(15.627 2.917)">
          <rect id="Rectangle_480" data-name="Rectangle 480" width="2.103" height="10.355" transform="translate(0 0.005)" fill="#fff"/>
          <rect id="Rectangle_481" data-name="Rectangle 481" width="2.103" height="5.501" transform="translate(8.176 4.859)" fill="#fff"/>
          <path id="Path_810" data-name="Path 810" d="M3312.566-86.443a5.126,5.126,0,0,0-4.949,5.03l2.1.035a3.053,3.053,0,0,1,3.191-2.944,3.058,3.058,0,0,1,2.86,2.808c.005.072,0,.144,0,.216h2.117A5.135,5.135,0,0,0,3312.566-86.443Z" transform="translate(-3307.617 86.446)" fill="#fff"/>
        </g>
        <path id="Path_811" data-name="Path 811" d="M3338.637-86.437h-.825a2.024,2.024,0,0,0-1.9,1.329l-2.588,7.075h-.159l-2.643-7.225a1.8,1.8,0,0,0-1.687-1.18h-.984l3.83,10.47v.01h3.118v-.01l.007,0Z" transform="translate(-3302.156 89.359)" fill="#fff"/>
      </g>
    </g>
  </g>
</svg>
