<svg xmlns="http://www.w3.org/2000/svg" width="32.383" height="32.385" viewBox="0 0 32.383 32.385">
  <g id="delete" transform="translate(0 -0.008)">
    <circle id="Ellipse_184" data-name="Ellipse 184" cx="6.881" cy="6.881" r="6.881" transform="translate(17.935 17.942)" fill="#fafafa"/>
    <g id="Group_10817" data-name="Group 10817" transform="translate(17.247 17.254)">
      <path id="Path_20125" data-name="Path 20125" d="M284.922,292.484a7.569,7.569,0,1,1,7.569-7.569A7.569,7.569,0,0,1,284.922,292.484Zm0-13.762a6.193,6.193,0,1,0,6.193,6.193A6.193,6.193,0,0,0,284.922,278.722Z" transform="translate(-277.353 -277.346)" fill="#f44336"/>
      <path id="Path_20126" data-name="Path 20126" d="M319.136,319.837a.688.688,0,0,1-.487-.2l-9.73-9.73a.688.688,0,0,1,.973-.973l9.73,9.73a.688.688,0,0,1-.487,1.175Z" transform="translate(-306.702 -306.715)" fill="#f44336"/>
    </g>
    <path id="Path_20127" data-name="Path 20127" d="M16.533,24.93a8.805,8.805,0,0,1,6.881-8.51V.685a.681.681,0,0,0-.688-.673H8.964a.681.681,0,0,0-.688.673V8.093H.707a.681.681,0,0,0-.688.673v20.2a.681.681,0,0,0,.688.673H17.954A8.56,8.56,0,0,1,16.533,24.93Z" transform="translate(-0.018 -0.004)" fill="#cfd8dc"/>
    <path id="Path_20128" data-name="Path 20128" d="M9.209.06a.688.688,0,0,0-.75.149L.2,8.466A.688.688,0,0,0,.689,9.641H8.946a.688.688,0,0,0,.688-.688V.7A.688.688,0,0,0,9.209.06Z" transform="translate(0 0)" fill="#b0bec5"/>
  </g>
</svg>
