<svg xmlns="http://www.w3.org/2000/svg" xmlns:xlink="http://www.w3.org/1999/xlink" width="130.725" height="114.08" viewBox="0 0 130.725 114.08">
  <defs>
    <linearGradient id="linear-gradient" x1="0.001" y1="0.503" x2="0.973" y2="0.503" gradientUnits="objectBoundingBox">
      <stop offset="0" stop-color="#83a6ff"/>
      <stop offset="1" stop-color="#5a78ff"/>
    </linearGradient>
    <linearGradient id="linear-gradient-2" x1="0.01" y1="0.516" x2="0.981" y2="0.516" gradientUnits="objectBoundingBox">
      <stop offset="0" stop-color="#172b4d"/>
      <stop offset="1" stop-color="#8790a2"/>
    </linearGradient>
    <linearGradient id="linear-gradient-3" x1="0.232" y1="0.089" x2="0.788" y2="0.925" gradientUnits="objectBoundingBox">
      <stop offset="0" stop-color="#60a5fa"/>
      <stop offset="1" stop-color="#1d4ed8"/>
    </linearGradient>
    <filter id="Path" x="0" y="8.658" width="47.318" height="47.811" filterUnits="userSpaceOnUse">
      <feOffset dy="5" input="SourceAlpha"/>
      <feGaussianBlur stdDeviation="4" result="blur"/>
      <feFlood flood-color="#4159f7" flood-opacity="0.302"/>
      <feComposite operator="in" in2="blur"/>
      <feComposite in="SourceGraphic"/>
    </filter>
    <linearGradient id="linear-gradient-4" x1="0.285" y1="0.23" x2="0.685" y2="0.605" gradientUnits="objectBoundingBox">
      <stop offset="0" stop-color="#1e40af"/>
      <stop offset="1" stop-color="#2475ff" stop-opacity="0"/>
    </linearGradient>
    <linearGradient id="linear-gradient-5" x1="0.772" y1="0.682" x2="0.328" y2="0.136" gradientUnits="objectBoundingBox">
      <stop offset="0" stop-color="#ddf0fc"/>
      <stop offset="1" stop-color="#fff"/>
    </linearGradient>
    <linearGradient id="linear-gradient-6" x1="0.232" y1="0.091" x2="0.789" y2="0.925" gradientUnits="objectBoundingBox">
      <stop offset="0" stop-color="#9da4b4"/>
      <stop offset="1" stop-color="#172b4d"/>
    </linearGradient>
    <filter id="Path-2" x="72.865" y="55.205" width="57.859" height="58.875" filterUnits="userSpaceOnUse">
      <feOffset dy="5" input="SourceAlpha"/>
      <feGaussianBlur stdDeviation="4" result="blur-2"/>
      <feFlood flood-color="#6b778c" flood-opacity="0.22"/>
      <feComposite operator="in" in2="blur-2"/>
      <feComposite in="SourceGraphic"/>
    </filter>
    <linearGradient id="linear-gradient-7" x1="0.132" y1="0.087" x2="0.617" y2="0.624" gradientUnits="objectBoundingBox">
      <stop offset="0" stop-color="#172b4d"/>
      <stop offset="1" stop-color="#6b778c" stop-opacity="0"/>
    </linearGradient>
    <linearGradient id="linear-gradient-8" x1="0.963" y1="0.975" x2="0.273" y2="0.304" gradientUnits="objectBoundingBox">
      <stop offset="0" stop-color="#9da4b4"/>
      <stop offset="1" stop-color="#fff"/>
    </linearGradient>
  </defs>
  <g id="_45" data-name="45" transform="translate(3.331)">
    <path id="Path-3" data-name="Path" d="M95.763,49.19a50.537,50.537,0,0,1-9.73,29.85,49.887,49.887,0,0,1-12.05,11.51,46.622,46.622,0,0,1-26.1,8.03C21.387,98.58,0,76.46,0,49.29,0,22.02,21.483,0,47.88,0a47.253,47.253,0,0,1,26.1,7.93,49.362,49.362,0,0,1,21.78,41.26Z" transform="translate(11.657 0.984)" fill="#eaeef9"/>
    <path id="Path-4" data-name="Path" d="M60.7,11.41v59.6a49.886,49.886,0,0,1-12.05,11.51H0V8.04A8.532,8.532,0,0,1,2.312,2.48,8.056,8.056,0,0,1,8.189,0H48.647A47.918,47.918,0,0,1,60.7,11.41Z" transform="translate(36.993 8.914)" fill="#ced7e2" opacity="0.3"/>
    <path id="Path-5" data-name="Path" d="M27.36,10.62H0V0H36.13A10.532,10.532,0,0,1,46.24,10.71H34.39" transform="translate(61.56 8.914)" fill="#ced7e2"/>
    <path id="Path-6" data-name="Path" d="M68.884,0a8.583,8.583,0,0,0-5.49,2.48,2.172,2.172,0,0,0-.39.5,8.794,8.794,0,0,0-2.12,5.55V72a10.516,10.516,0,0,1-10.4,10.72H0V8.04A8.522,8.522,0,0,1,2.312,2.48,8.052,8.052,0,0,1,8.188,0h60.7Z" transform="translate(29.576 8.914)" fill="#fff"/>
    <path id="Path-7" data-name="Path" d="M15.9,1.98H.963A.976.976,0,0,1,0,.99,1.054,1.054,0,0,1,.963,0H15.992a.982.982,0,0,1,.963.99A1.064,1.064,0,0,1,15.9,1.98Z" transform="translate(64.45 21.414)" fill="#ced7e2"/>
    <path id="Path-8" data-name="Path" d="M20.519,1.98H.963A.976.976,0,0,1,0,.99,1.054,1.054,0,0,1,.963,0H20.519a.983.983,0,0,1,.964.99A.977.977,0,0,1,20.519,1.98Z" transform="translate(37.861 21.414)" fill="#ced7e2"/>
    <path id="Path-9" data-name="Path" d="M20.423,1.98H.963A.982.982,0,0,1,0,.99.975.975,0,0,1,.963,0h19.46a.977.977,0,0,1,.964.99A.926.926,0,0,1,20.423,1.98Z" transform="translate(50.481 31.434)" fill="#ced7e2"/>
    <path id="Path-10" data-name="Path" d="M7.321,1.98H.963A.982.982,0,0,1,0,.99.974.974,0,0,1,.963,0H7.321a.977.977,0,0,1,.964.99A.981.981,0,0,1,7.321,1.98Z" transform="translate(37.861 31.434)" fill="#e3eaf2"/>
    <path id="Path-11" data-name="Path" d="M12.909,1.99H.963A.985.985,0,0,1,0,.99.981.981,0,0,1,.963,0H12.909a.983.983,0,0,1,.964.99A.927.927,0,0,1,12.909,1.99Z" transform="translate(67.436 41.544)" fill="#e3eaf2"/>
    <path id="Path-12" data-name="Path" d="M24.855,1.99H.963A.985.985,0,0,1,0,.99.981.981,0,0,1,.963,0H24.855a.982.982,0,0,1,.963.99A.985.985,0,0,1,24.855,1.99Z" transform="translate(37.861 41.544)" fill="#ced7e2"/>
    <path id="Path-13" data-name="Path" d="M14.161,1.98H.963A.976.976,0,0,1,0,.99,1.046,1.046,0,0,1,.963,0h13.2a.977.977,0,0,1,.964.99A.977.977,0,0,1,14.161,1.98Z" transform="translate(56.743 51.564)" fill="#ced7e2"/>
    <path id="Path-14" data-name="Path" d="M14.161,1.98H.963A.976.976,0,0,1,0,.99,1.046,1.046,0,0,1,.963,0h13.2a.977.977,0,0,1,.964.99A.977.977,0,0,1,14.161,1.98Z" transform="translate(37.861 51.564)" fill="#e3eaf2"/>
    <path id="Path-15" data-name="Path" d="M10.115,1.99H.963A.982.982,0,0,1,0,1,.984.984,0,0,1,.963,0h9.152a.985.985,0,0,1,.964,1A.924.924,0,0,1,10.115,1.99Z" transform="translate(70.23 61.674)" fill="#ced7e2"/>
    <path id="Path-16" data-name="Path" d="M16.378,1.99H.964A.983.983,0,0,1,0,1,.984.984,0,0,1,.964,0H16.378a.985.985,0,0,1,.963,1A.923.923,0,0,1,16.378,1.99Z" transform="translate(48.843 61.674)" fill="#e3eaf2"/>
    <path id="Path-17" data-name="Path" d="M6.359,1.99H.964A.983.983,0,0,1,0,1,.984.984,0,0,1,.964,0h5.4a.985.985,0,0,1,.963,1A.982.982,0,0,1,6.359,1.99Z" transform="translate(37.764 61.674)" fill="#ced7e2"/>
    <path id="Path-18" data-name="Path" d="M10.115,1.99H.963A.985.985,0,0,1,0,.99,1.055,1.055,0,0,1,.963,0h9.152a.983.983,0,0,1,.964.99A.985.985,0,0,1,10.115,1.99Z" transform="translate(60.789 71.694)" fill="#ced7e2"/>
    <path id="Path-19" data-name="Path" d="M17.918,1.99H.963A.985.985,0,0,1,0,.99,1.054,1.054,0,0,1,.963,0H17.918a.983.983,0,0,1,.964.99A1.057,1.057,0,0,1,17.918,1.99Z" transform="translate(37.861 71.694)" fill="#e3eaf2"/>
    <path id="Path-20" data-name="Path" d="M46.724,0H60.018a8.28,8.28,0,0,0,2.409,5.95,8.023,8.023,0,0,0,5.78,2.48H8.189a7.838,7.838,0,0,1-5.78-2.48A8.514,8.514,0,0,1,0,0H39.4C39.5,0,46.82.1,46.724,0Z" transform="translate(11.175 83.104)" fill="#ced7e2"/>
    <path id="Path-21" data-name="Path" d="M3.154,4.841A2.5,2.5,0,0,0,4.7,1.711,2.4,2.4,0,0,0,1.665.121,2.5,2.5,0,0,0,.119,3.251,2.4,2.4,0,0,0,3.154,4.841Z" transform="translate(17.062 6.543)" fill="#eaeef9"/>
    <path id="Path-22" data-name="Path" d="M2.144,3.294A1.7,1.7,0,0,0,3.2,1.164,1.629,1.629,0,0,0,1.132.084,1.7,1.7,0,0,0,.08,2.214,1.63,1.63,0,0,0,2.144,3.294Z" transform="translate(23.329)" fill="#eaeef9"/>
    <path id="Path-23" data-name="Path" d="M1.638,3.38A1.667,1.667,0,0,0,3.276,1.69,1.667,1.667,0,0,0,1.638,0,1.667,1.667,0,0,0,0,1.69,1.667,1.667,0,0,0,1.638,3.38Z" transform="translate(1.83 53.344)" fill="url(#linear-gradient)"/>
    <path id="Path-24" data-name="Path" d="M6.131,6.551a3.86,3.86,0,0,0,.23-5.33,3.585,3.585,0,0,0-5.17-.23,3.838,3.838,0,0,0-.23,5.32A3.586,3.586,0,0,0,6.131,6.551Z" transform="translate(111.169 29.262)" fill="#eaeef9"/>
    <path id="Path-25" data-name="Path" d="M1.54,3.18A1.565,1.565,0,0,0,3.08,1.59,1.565,1.565,0,0,0,1.54,0,1.565,1.565,0,0,0,0,1.59,1.565,1.565,0,0,0,1.54,3.18Z" transform="translate(115.03 16.154)" fill="url(#linear-gradient-2)"/>
    <g transform="matrix(1, 0, 0, 1, -3.33, 0)" filter="url(#Path)">
      <path id="Path-26" data-name="Path" d="M23.315,17.556a5.984,5.984,0,0,1-5.684,6.15H16.09l-4.239.1A11.751,11.751,0,0,1,0,12.206,11.858,11.858,0,0,1,11.273.006a11.749,11.749,0,0,1,11.849,11.6l.1,2.48Z" transform="translate(12 15.66)" fill="url(#linear-gradient-3)"/>
    </g>
    <path id="Path-27" data-name="Path" d="M15.125,9.52a5.984,5.984,0,0,1-5.684,6.15H7.9L0,7.54,6.744,1.29,8.959,0l5.973,6.15Z" transform="translate(16.859 23.694)" fill="url(#linear-gradient-4)"/>
    <path id="Path-28" data-name="Path" d="M4.286,9.28a1.417,1.417,0,0,1-1.059-.4L.433,6a1.464,1.464,0,0,1,0-2.08,1.377,1.377,0,0,1,2.023,0L4.19,5.71,9.3.45a1.362,1.362,0,0,1,2.023,0,1.464,1.464,0,0,1,0,2.08L5.154,8.88A1.042,1.042,0,0,1,4.286,9.28Z" transform="translate(14.403 23.344)" fill="url(#linear-gradient-5)"/>
    <path id="Path-29" data-name="Path" d="M0,.5H98.36" transform="translate(0 92.714)" fill="none" stroke="#ebf0f6" stroke-linecap="round" stroke-linejoin="round" stroke-miterlimit="10" stroke-width="2"/>
    <g transform="matrix(1, 0, 0, 1, -3.33, 0)" filter="url(#Path-2)">
      <path id="Path-30" data-name="Path" d="M33.506,21.009a22.4,22.4,0,0,1-1.16,3.67,3,3,0,0,1-.38.79,16.815,16.815,0,0,1-7.42,7.54,10.3,10.3,0,0,1-1.06.49,16.348,16.348,0,0,1-10.02.99,17.413,17.413,0,0,1-13.1-20.62A16.933,16.933,0,0,1,20.406.379a17.26,17.26,0,0,1,8.57,4.76A17.964,17.964,0,0,1,33.506,21.009Z" transform="translate(84.87 62.2)" fill="url(#linear-gradient-6)"/>
    </g>
    <path id="Path-31" data-name="Path" d="M20.81,11.4a3.228,3.228,0,0,1-.38.8,16.815,16.815,0,0,1-7.42,7.54,11.37,11.37,0,0,1-1.06.49L0,7.93l2.89.1,3.08.1L8.19,6.55A26.388,26.388,0,0,0,9.83,3.27C9.73,3.07,7.81,0,7.81,0L9.92.4Z" transform="translate(93.06 75.564)" fill="url(#linear-gradient-7)"/>
    <path id="Shape" d="M13,14.754a1.194,1.194,0,0,1-.867-.377l-2.5-2.568a6,6,0,0,1-3.389,1.037,6.315,6.315,0,0,1-3.453-1.037,6.445,6.445,0,0,1-2.676-4.1,6.553,6.553,0,0,1,.934-4.83A6.216,6.216,0,0,1,6.256,0,6.121,6.121,0,0,1,9.725,1.088a6.448,6.448,0,0,1,2.674,4.1,6.587,6.587,0,0,1-.932,4.838l2.5,2.58a1.2,1.2,0,0,1,.352.9A1.406,1.406,0,0,1,13,14.754ZM6.311,2.561A3.69,3.69,0,0,0,3.658,3.668a4.011,4.011,0,0,0,0,5.463A3.622,3.622,0,0,0,6.273,10.25,3.853,3.853,0,0,0,8.959,9.131a4,4,0,0,0,0-5.463A3.671,3.671,0,0,0,6.311,2.561Z" transform="translate(91.425 72.684)" fill="url(#linear-gradient-8)"/>
  </g>
</svg>
