<svg id="Group_11126" data-name="Group 11126" xmlns="http://www.w3.org/2000/svg" width="17" height="17" viewBox="0 0 17 17">
  <path id="Path_1945" data-name="Path 1945" d="M3289.461-150.062v-12a.685.685,0,0,0-1.167-.476l-2.7,2.659a1.655,1.655,0,0,0-.5,1.18v12.963Z" transform="translate(-3285.095 162.738)" fill="#104db6"/>
  <path id="Path_1946" data-name="Path 1946" d="M3309.347-149.5v-11.58a.862.862,0,0,0-1.468-.6l-2.4,2.361a1.66,1.66,0,0,0-.5,1.182v12.959Z" transform="translate(-3298.664 162.174)" fill="#104db6"/>
  <path id="Path_1947" data-name="Path 1947" d="M3329.231-149.7v-11.732a.8.8,0,0,0-1.36-.554l-2.49,2.45a1.717,1.717,0,0,0-.516,1.224v12.935Z" transform="translate(-3312.231 162.377)" fill="#104db6"/>
</svg>
