<svg xmlns="http://www.w3.org/2000/svg" width="30.363" height="30.363" viewBox="0 0 30.363 30.363">
  <g id="import" transform="translate(0 -0.01)">
    <path id="Path_20115" data-name="Path 20115" d="M230.565,50.253h-7.02V43.307a.635.635,0,0,0-.638-.631h-8.935a.635.635,0,0,0-.638.631V67.3a.635.635,0,0,0,.638.631h16.594a.635.635,0,0,0,.638-.631V50.885A.635.635,0,0,0,230.565,50.253Z" transform="translate(-200.84 -40.113)" fill="#cfd8dc"/>
    <path id="Path_20116" data-name="Path 20116" d="M371.415,50.5l-7.659-7.659a.638.638,0,0,0-1.09.452v7.659a.638.638,0,0,0,.638.638h7.659a.638.638,0,0,0,.452-1.09Z" transform="translate(-341.238 -40.096)" fill="#b0bec5"/>
    <g id="Group_10815" data-name="Group 10815" transform="translate(15.046 15.136)">
      <path id="Path_20117" data-name="Path 20117" d="M266.85,257.285H256.638a.638.638,0,0,1,0-1.276H266.85a.638.638,0,1,1,0,1.276Z" transform="translate(-256 -256.009)" fill="#90a4ae"/>
      <path id="Path_20118" data-name="Path 20118" d="M266.85,321.285H256.638a.638.638,0,0,1,0-1.276H266.85a.638.638,0,1,1,0,1.276Z" transform="translate(-256 -316.18)" fill="#90a4ae"/>
      <path id="Path_20119" data-name="Path 20119" d="M266.85,385.285H256.638a.638.638,0,0,1,0-1.276H266.85a.638.638,0,1,1,0,1.276Z" transform="translate(-256 -376.35)" fill="#90a4ae"/>
    </g>
    <path id="Path_20120" data-name="Path 20120" d="M15.956.01a18.165,18.165,0,0,0-5.181.759L2.275,3.3A3.148,3.148,0,0,0,0,6.321V24.192a3.18,3.18,0,0,0,2.07,2.962L9.432,29.89a7.7,7.7,0,0,0,2.695.483,1.906,1.906,0,0,0,1.915-1.9v-16.8a.633.633,0,0,1,.437-.6l2.084-.692a1.9,1.9,0,0,0,1.308-1.8V1.908A1.906,1.906,0,0,0,15.956.01Z" transform="translate(0)" fill="#172b4d"/>
  </g>
</svg>
