<svg xmlns="http://www.w3.org/2000/svg" width="29.713" height="25.998" viewBox="0 0 29.713 25.998">
  <g id="list-customer" transform="translate(0 -32)">
    <g id="Group_10819" data-name="Group 10819" transform="translate(0 35.714)">
      <circle id="Ellipse_185" data-name="Ellipse 185" cx="5.5" cy="5.5" r="5.5" transform="translate(4.856 0.284)" fill="#172b4d"/>
      <path id="Path_20141" data-name="Path 20141" d="M21.959,323.826a16.8,16.8,0,0,0-21.636,0,.916.916,0,0,0-.323.7v2.565a1.917,1.917,0,0,0,1.857,2.084h18.57a1.855,1.855,0,0,0,1.857-1.855V324.8A1.131,1.131,0,0,0,21.959,323.826Z" transform="translate(0 -306.888)" fill="#172b4d"/>
    </g>
    <g id="Group_10820" data-name="Group 10820" transform="translate(13.98 32)">
      <path id="Path_20142" data-name="Path 20142" d="M245.487,41.285a7.355,7.355,0,0,1-.232,1.833c.08,0,.152.024.232.024a5.571,5.571,0,1,0-4.591-8.717A7.437,7.437,0,0,1,245.487,41.285Z" transform="translate(-240.896 -32)" fill="#90a4ae"/>
      <path id="Path_20143" data-name="Path 20143" d="M279.333,260.042a16.778,16.778,0,0,0-11.857-3.9,7.547,7.547,0,0,1-2.132,2.318,18.65,18.65,0,0,1,7.824,3.929,2.7,2.7,0,0,1,.919,2.071v.929H277.8a1.858,1.858,0,0,0,1.857-1.857v-2.785A.923.923,0,0,0,279.333,260.042Z" transform="translate(-263.925 -243.104)" fill="#90a4ae"/>
    </g>
  </g>
</svg>
