<svg xmlns="http://www.w3.org/2000/svg" width="32" height="30.001" viewBox="0 0 32 30.001">
  <g id="outlook" transform="translate(0 -15.989)">
    <path id="Path_20090" data-name="Path 20090" d="M271,112.011H257a1,1,0,0,0,0,2h11.086l-6.144,4.778-4.406-2.8-1.072,1.688,5,3.18a1,1,0,0,0,1.15-.054L270,115.055v12.956H257a1,1,0,0,0,0,2h14a1,1,0,0,0,1-1v-16A1,1,0,0,0,271,112.011Z" transform="translate(-240 -90.02)" fill="#1976d2"/>
    <path id="Path_20091" data-name="Path 20091" d="M17.638,16.221a.983.983,0,0,0-.822-.212l-16,3A1,1,0,0,0,0,19.991v22a1,1,0,0,0,.816.982l16,3a.941.941,0,0,0,.184.018,1,1,0,0,0,1-1v-28A1,1,0,0,0,17.638,16.221Z" fill="#2196f3"/>
    <path id="Path_20092" data-name="Path 20092" d="M69,188.011c-2.756,0-5-2.692-5-6s2.244-6,5-6,5,2.692,5,6S71.756,188.011,69,188.011Zm0-10c-1.654,0-3,1.794-3,4s1.346,4,3,4,3-1.794,3-4S70.654,178.011,69,178.011Z" transform="translate(-60 -150.02)" fill="#fafafa"/>
  </g>
</svg>
