<svg xmlns="http://www.w3.org/2000/svg" width="29.998" height="29.998" viewBox="0 0 29.998 29.998">
  <g id="replace" transform="translate(0 -0.008)">
    <path id="Path_20129" data-name="Path 20129" d="M250.933,128.637v21.248a.625.625,0,0,1-.625.625h-15a.625.625,0,0,1-.625-.625V135.511l7.5-7.5h8.124A.625.625,0,0,1,250.933,128.637Z" transform="translate(-220.936 -120.505)" fill="#b0bec5"/>
    <path id="Path_20130" data-name="Path 20130" d="M242.185,128.012v6.874a.625.625,0,0,1-.625.625h-6.874Z" transform="translate(-220.937 -120.505)" fill="#90a4ae"/>
    <path id="Path_20131" data-name="Path 20131" d="M15.643.012h-7.5a.625.625,0,0,0-.625.625V7.511H.644a.625.625,0,0,0-.625.625V21.885a.625.625,0,0,0,.625.625h15a.625.625,0,0,0,.625-.625V.637A.625.625,0,0,0,15.643.012Z" transform="translate(-0.018 -0.004)" fill="#cfd8dc"/>
    <g id="Group_10818" data-name="Group 10818" transform="translate(1.259 0.008)">
      <path id="Path_20132" data-name="Path 20132" d="M306.809,6.26a.625.625,0,0,1-.625-.625v-2.5a1.875,1.875,0,0,0-1.875-1.875h-5a.625.625,0,0,1,0-1.25h5a3.125,3.125,0,0,1,3.125,3.125v.991l1.432-1.432a.625.625,0,0,1,.9.868l-.015.015-2.5,2.5A.625.625,0,0,1,306.809,6.26Z" transform="translate(-282.445 -0.011)" fill="#172b4d"/>
      <path id="Path_20133" data-name="Path 20133" d="M387.256,46.561a.625.625,0,0,1-.442-.183l-2.5-2.5a.625.625,0,0,1,.884-.884l2.5,2.5a.625.625,0,0,1-.441,1.066Z" transform="translate(-362.892 -40.311)" fill="#172b4d"/>
      <path id="Path_20134" data-name="Path 20134" d="M32.11,411.617h-5a3.125,3.125,0,0,1-3.125-3.125V407.5l-1.432,1.434a.625.625,0,0,1-.884-.884l2.5-2.5a.625.625,0,0,1,1.066.441v2.5a1.875,1.875,0,0,0,1.875,1.875h5a.625.625,0,1,1,0,1.25Z" transform="translate(-21.494 -381.619)" fill="#2475ff"/>
      <path id="Path_20135" data-name="Path 20135" d="M67.256,409.227a.625.625,0,0,1-.442-.182l-2.5-2.5a.625.625,0,0,1,.884-.884l2.5,2.5a.625.625,0,0,1-.441,1.066Z" transform="translate(-61.64 -381.729)" fill="#2475ff"/>
    </g>
    <path id="Path_20136" data-name="Path 20136" d="M8.363.055A.625.625,0,0,0,7.682.19l-7.5,7.5A.625.625,0,0,0,.625,8.757h7.5a.625.625,0,0,0,.625-.625V.633A.625.625,0,0,0,8.363.055Z" transform="translate(0 0)" fill="#b0bec5"/>
  </g>
</svg>
